<mxfile host="app.diagrams.net" modified="2023-10-06T09:30:35.914Z" agent="Mozilla/5.0 (Windows NT 10.0; Win64; x64) AppleWebKit/537.36 (KHTML, like Gecko) Chrome/116.0.0.0 Safari/537.36 OPR/102.0.0.0" etag="ZuqXQFa0gYJWQ8gt1sey" version="22.0.3" type="device">
  <diagram name="Page-1" id="_wAC_VCA0p9P3PtQ_74V">
    <mxGraphModel dx="751" dy="1106" grid="1" gridSize="10" guides="1" tooltips="1" connect="1" arrows="1" fold="1" page="1" pageScale="1" pageWidth="850" pageHeight="1100" math="0" shadow="0">
      <root>
        <mxCell id="0" />
        <mxCell id="1" parent="0" />
        <mxCell id="CdXzb7p_uJ0kPg4sfLAn-1" value="Rotor" style="swimlane;fontStyle=1;align=center;verticalAlign=top;childLayout=stackLayout;horizontal=1;startSize=26;horizontalStack=0;resizeParent=1;resizeParentMax=0;resizeLast=0;collapsible=1;marginBottom=0;whiteSpace=wrap;html=1;" vertex="1" parent="1">
          <mxGeometry x="30" y="167" width="240" height="270" as="geometry">
            <mxRectangle x="90" y="210" width="70" height="30" as="alternateBounds" />
          </mxGeometry>
        </mxCell>
        <mxCell id="CdXzb7p_uJ0kPg4sfLAn-3" value="" style="line;strokeWidth=1;fillColor=none;align=left;verticalAlign=middle;spacingTop=-1;spacingLeft=3;spacingRight=3;rotatable=0;labelPosition=right;points=[];portConstraint=eastwest;strokeColor=inherit;" vertex="1" parent="CdXzb7p_uJ0kPg4sfLAn-1">
          <mxGeometry y="26" width="240" height="8" as="geometry" />
        </mxCell>
        <mxCell id="CdXzb7p_uJ0kPg4sfLAn-2" value="- encoding : String&lt;br&gt;- rotationPostion : int&lt;br&gt;- ringSetting : int&lt;br&gt;- notchPosition : int&lt;br&gt;- name : String&lt;br&gt;- wiring : int[]&lt;br&gt;- wiringReversed : int[]" style="text;strokeColor=none;fillColor=none;align=left;verticalAlign=top;spacingLeft=4;spacingRight=4;overflow=hidden;rotatable=0;points=[[0,0.5],[1,0.5]];portConstraint=eastwest;whiteSpace=wrap;html=1;" vertex="1" parent="CdXzb7p_uJ0kPg4sfLAn-1">
          <mxGeometry y="34" width="240" height="114" as="geometry" />
        </mxCell>
        <mxCell id="CdXzb7p_uJ0kPg4sfLAn-33" value="" style="line;strokeWidth=1;fillColor=none;align=left;verticalAlign=middle;spacingTop=-1;spacingLeft=3;spacingRight=3;rotatable=0;labelPosition=right;points=[];portConstraint=eastwest;strokeColor=inherit;" vertex="1" parent="CdXzb7p_uJ0kPg4sfLAn-1">
          <mxGeometry y="148" width="240" height="8" as="geometry" />
        </mxCell>
        <mxCell id="CdXzb7p_uJ0kPg4sfLAn-4" value="+ Rotor(String, String, int, int, int)&lt;br&gt;+ encrypt(int, TranslationDirection) : int&lt;br&gt;- configureWiringForwards()&lt;br&gt;- configureWiringBackwards()&lt;br&gt;+ configureWiring(String)&lt;br&gt;+ isNotchAtPosition() : boolean&lt;br&gt;+ rotate()" style="text;strokeColor=none;fillColor=none;align=left;verticalAlign=top;spacingLeft=4;spacingRight=4;overflow=hidden;rotatable=0;points=[[0,0.5],[1,0.5]];portConstraint=eastwest;whiteSpace=wrap;html=1;" vertex="1" parent="CdXzb7p_uJ0kPg4sfLAn-1">
          <mxGeometry y="156" width="240" height="114" as="geometry" />
        </mxCell>
        <mxCell id="CdXzb7p_uJ0kPg4sfLAn-5" value="Reflector" style="swimlane;fontStyle=1;align=center;verticalAlign=top;childLayout=stackLayout;horizontal=1;startSize=26;horizontalStack=0;resizeParent=1;resizeParentMax=0;resizeLast=0;collapsible=1;marginBottom=0;whiteSpace=wrap;html=1;" vertex="1" parent="1">
          <mxGeometry x="30" y="690" width="200" height="160" as="geometry" />
        </mxCell>
        <mxCell id="CdXzb7p_uJ0kPg4sfLAn-6" value="- encoding : String&lt;br&gt;- wiring : int[]&lt;br&gt;" style="text;strokeColor=none;fillColor=none;align=left;verticalAlign=top;spacingLeft=4;spacingRight=4;overflow=hidden;rotatable=0;points=[[0,0.5],[1,0.5]];portConstraint=eastwest;whiteSpace=wrap;html=1;" vertex="1" parent="CdXzb7p_uJ0kPg4sfLAn-5">
          <mxGeometry y="26" width="200" height="44" as="geometry" />
        </mxCell>
        <mxCell id="CdXzb7p_uJ0kPg4sfLAn-7" value="" style="line;strokeWidth=1;fillColor=none;align=left;verticalAlign=middle;spacingTop=-1;spacingLeft=3;spacingRight=3;rotatable=0;labelPosition=right;points=[];portConstraint=eastwest;strokeColor=inherit;" vertex="1" parent="CdXzb7p_uJ0kPg4sfLAn-5">
          <mxGeometry y="70" width="200" height="8" as="geometry" />
        </mxCell>
        <mxCell id="CdXzb7p_uJ0kPg4sfLAn-8" value="+ Reflector(String, String)&lt;br&gt;+ configureWiring(String)&lt;br&gt;+ encrypt(int) : int&lt;br&gt;- validateEncoding() : boolean" style="text;strokeColor=none;fillColor=none;align=left;verticalAlign=top;spacingLeft=4;spacingRight=4;overflow=hidden;rotatable=0;points=[[0,0.5],[1,0.5]];portConstraint=eastwest;whiteSpace=wrap;html=1;" vertex="1" parent="CdXzb7p_uJ0kPg4sfLAn-5">
          <mxGeometry y="78" width="200" height="82" as="geometry" />
        </mxCell>
        <mxCell id="CdXzb7p_uJ0kPg4sfLAn-9" value="Plugboard" style="swimlane;fontStyle=1;align=center;verticalAlign=top;childLayout=stackLayout;horizontal=1;startSize=26;horizontalStack=0;resizeParent=1;resizeParentMax=0;resizeLast=0;collapsible=1;marginBottom=0;whiteSpace=wrap;html=1;" vertex="1" parent="1">
          <mxGeometry x="30" y="460" width="230" height="210" as="geometry" />
        </mxCell>
        <mxCell id="CdXzb7p_uJ0kPg4sfLAn-10" value="- cablesUsed : int&lt;br&gt;- wiring : int[]" style="text;strokeColor=none;fillColor=none;align=left;verticalAlign=top;spacingLeft=4;spacingRight=4;overflow=hidden;rotatable=0;points=[[0,0.5],[1,0.5]];portConstraint=eastwest;whiteSpace=wrap;html=1;" vertex="1" parent="CdXzb7p_uJ0kPg4sfLAn-9">
          <mxGeometry y="26" width="230" height="64" as="geometry" />
        </mxCell>
        <mxCell id="CdXzb7p_uJ0kPg4sfLAn-11" value="" style="line;strokeWidth=1;fillColor=none;align=left;verticalAlign=middle;spacingTop=-1;spacingLeft=3;spacingRight=3;rotatable=0;labelPosition=right;points=[];portConstraint=eastwest;strokeColor=inherit;" vertex="1" parent="CdXzb7p_uJ0kPg4sfLAn-9">
          <mxGeometry y="90" width="230" height="8" as="geometry" />
        </mxCell>
        <mxCell id="CdXzb7p_uJ0kPg4sfLAn-12" value="+ Plugboard()&lt;br&gt;+ encrypt(int) : int&lt;br&gt;+ addCable(int, int)&lt;br&gt;+ removeCable(int, int)&lt;br&gt;+ resetPlugboard()&lt;br&gt;+ getPairedCharacters() : List&amp;lt;String&amp;gt;&lt;br&gt;- formatPairedCharacter() : String" style="text;strokeColor=none;fillColor=none;align=left;verticalAlign=top;spacingLeft=4;spacingRight=4;overflow=hidden;rotatable=0;points=[[0,0.5],[1,0.5]];portConstraint=eastwest;whiteSpace=wrap;html=1;" vertex="1" parent="CdXzb7p_uJ0kPg4sfLAn-9">
          <mxGeometry y="98" width="230" height="112" as="geometry" />
        </mxCell>
        <mxCell id="CdXzb7p_uJ0kPg4sfLAn-13" value="&amp;lt;&amp;lt;enum&amp;gt;&amp;gt;&lt;br&gt;TranslationDirection" style="swimlane;fontStyle=0;childLayout=stackLayout;horizontal=1;startSize=30;fillColor=none;horizontalStack=0;resizeParent=1;resizeParentMax=0;resizeLast=0;collapsible=1;marginBottom=0;whiteSpace=wrap;html=1;" vertex="1" parent="1">
          <mxGeometry x="30" y="60" width="140" height="74" as="geometry" />
        </mxCell>
        <mxCell id="CdXzb7p_uJ0kPg4sfLAn-14" value="FORWARDS, BACKWARDS" style="text;strokeColor=none;fillColor=none;align=left;verticalAlign=top;spacingLeft=4;spacingRight=4;overflow=hidden;rotatable=0;points=[[0,0.5],[1,0.5]];portConstraint=eastwest;whiteSpace=wrap;html=1;" vertex="1" parent="CdXzb7p_uJ0kPg4sfLAn-13">
          <mxGeometry y="30" width="140" height="44" as="geometry" />
        </mxCell>
        <mxCell id="CdXzb7p_uJ0kPg4sfLAn-29" value="EnigmaMachine" style="swimlane;fontStyle=1;align=center;verticalAlign=top;childLayout=stackLayout;horizontal=1;startSize=26;horizontalStack=0;resizeParent=1;resizeParentMax=0;resizeLast=0;collapsible=1;marginBottom=0;whiteSpace=wrap;html=1;" vertex="1" parent="1">
          <mxGeometry x="330" y="520" width="220" height="340" as="geometry" />
        </mxCell>
        <mxCell id="CdXzb7p_uJ0kPg4sfLAn-30" value="- rotors : List&amp;lt;Rotor&amp;gt;&lt;br&gt;- plugBoard : Plugboard&lt;br&gt;- reflector : Reflector&lt;br&gt;- powerState : int&lt;br&gt;- numberOfRotors : int" style="text;strokeColor=none;fillColor=none;align=left;verticalAlign=top;spacingLeft=4;spacingRight=4;overflow=hidden;rotatable=0;points=[[0,0.5],[1,0.5]];portConstraint=eastwest;whiteSpace=wrap;html=1;" vertex="1" parent="CdXzb7p_uJ0kPg4sfLAn-29">
          <mxGeometry y="26" width="220" height="94" as="geometry" />
        </mxCell>
        <mxCell id="CdXzb7p_uJ0kPg4sfLAn-31" value="" style="line;strokeWidth=1;fillColor=none;align=left;verticalAlign=middle;spacingTop=-1;spacingLeft=3;spacingRight=3;rotatable=0;labelPosition=right;points=[];portConstraint=eastwest;strokeColor=inherit;" vertex="1" parent="CdXzb7p_uJ0kPg4sfLAn-29">
          <mxGeometry y="120" width="220" height="8" as="geometry" />
        </mxCell>
        <mxCell id="CdXzb7p_uJ0kPg4sfLAn-32" value="+ EnigmaMachine()&lt;br&gt;+ encryptMessage(String) : String&lt;br&gt;+ displayCurrentSettings() : String&lt;br&gt;+ resetEnigmaMachine()&lt;br&gt;+ configureReflector(Reflector)&lt;br&gt;+ configureRotorOrder(List&amp;lt;Rotor&amp;gt;)&lt;br&gt;+ configureRotorRingSettings(int[])&lt;br&gt;+ configureRotorStartPosition(int[])&lt;br&gt;+ addPlugboardCable(String)&lt;br&gt;+ removePlugboardCable(String)&lt;br&gt;+ configureDefaultEnigmaMachine()&lt;br&gt;&lt;br&gt;- parsePlugboardCableSetting(String)&lt;br&gt;- rotateRotors()" style="text;strokeColor=none;fillColor=none;align=left;verticalAlign=top;spacingLeft=4;spacingRight=4;overflow=hidden;rotatable=0;points=[[0,0.5],[1,0.5]];portConstraint=eastwest;whiteSpace=wrap;html=1;" vertex="1" parent="CdXzb7p_uJ0kPg4sfLAn-29">
          <mxGeometry y="128" width="220" height="212" as="geometry" />
        </mxCell>
        <mxCell id="CdXzb7p_uJ0kPg4sfLAn-37" value="&lt;u&gt;RotorFactory&lt;/u&gt;" style="swimlane;fontStyle=1;align=center;verticalAlign=top;childLayout=stackLayout;horizontal=1;startSize=26;horizontalStack=0;resizeParent=1;resizeParentMax=0;resizeLast=0;collapsible=1;marginBottom=0;whiteSpace=wrap;html=1;" vertex="1" parent="1">
          <mxGeometry x="340" y="171" width="430" height="140" as="geometry" />
        </mxCell>
        <mxCell id="CdXzb7p_uJ0kPg4sfLAn-39" value="" style="line;strokeWidth=1;fillColor=none;align=left;verticalAlign=middle;spacingTop=-1;spacingLeft=3;spacingRight=3;rotatable=0;labelPosition=right;points=[];portConstraint=eastwest;strokeColor=inherit;" vertex="1" parent="CdXzb7p_uJ0kPg4sfLAn-37">
          <mxGeometry y="26" width="430" height="8" as="geometry" />
        </mxCell>
        <mxCell id="CdXzb7p_uJ0kPg4sfLAn-40" value="+ &lt;u&gt;buildCustomRotor&lt;/u&gt;(name : String,&lt;br&gt;&lt;span style=&quot;white-space: pre;&quot;&gt;&#x9;&lt;/span&gt;encoding :String,&lt;br&gt;&lt;span style=&quot;white-space: pre;&quot;&gt;&#x9;&lt;/span&gt;notchPosition : int,&lt;br&gt;&lt;span style=&quot;white-space: pre;&quot;&gt;&#x9;&lt;/span&gt;ringSetting : int,&lt;br&gt;&lt;span style=&quot;white-space: pre;&quot;&gt;&#x9;&lt;/span&gt;startPosition :int) : Rotor&lt;br&gt;+ &lt;u&gt;buildPresetRotor&lt;/u&gt;(name : String, ringSetting : int, startPosition : int) : Rotor" style="text;strokeColor=none;fillColor=none;align=left;verticalAlign=top;spacingLeft=4;spacingRight=4;overflow=hidden;rotatable=0;points=[[0,0.5],[1,0.5]];portConstraint=eastwest;whiteSpace=wrap;html=1;" vertex="1" parent="CdXzb7p_uJ0kPg4sfLAn-37">
          <mxGeometry y="34" width="430" height="106" as="geometry" />
        </mxCell>
        <mxCell id="CdXzb7p_uJ0kPg4sfLAn-45" value="" style="endArrow=open;html=1;endSize=12;startArrow=diamondThin;startSize=14;startFill=1;edgeStyle=orthogonalEdgeStyle;align=left;verticalAlign=bottom;rounded=0;exitX=1;exitY=0.5;exitDx=0;exitDy=0;entryX=0.514;entryY=-0.019;entryDx=0;entryDy=0;entryPerimeter=0;" edge="1" parent="1" source="CdXzb7p_uJ0kPg4sfLAn-4" target="CdXzb7p_uJ0kPg4sfLAn-29">
          <mxGeometry x="-1" y="3" relative="1" as="geometry">
            <mxPoint x="450" y="346" as="sourcePoint" />
            <mxPoint x="600" y="270" as="targetPoint" />
          </mxGeometry>
        </mxCell>
        <mxCell id="CdXzb7p_uJ0kPg4sfLAn-46" style="edgeStyle=orthogonalEdgeStyle;rounded=0;orthogonalLoop=1;jettySize=auto;html=1;exitX=0;exitY=0.5;exitDx=0;exitDy=0;entryX=1;entryY=0.5;entryDx=0;entryDy=0;dashed=1;" edge="1" parent="1" source="CdXzb7p_uJ0kPg4sfLAn-40" target="CdXzb7p_uJ0kPg4sfLAn-2">
          <mxGeometry relative="1" as="geometry" />
        </mxCell>
        <mxCell id="CdXzb7p_uJ0kPg4sfLAn-55" style="edgeStyle=orthogonalEdgeStyle;rounded=0;orthogonalLoop=1;jettySize=auto;html=1;exitX=0.5;exitY=0;exitDx=0;exitDy=0;entryX=1;entryY=0.5;entryDx=0;entryDy=0;dashed=1;" edge="1" parent="1" source="CdXzb7p_uJ0kPg4sfLAn-47" target="CdXzb7p_uJ0kPg4sfLAn-8">
          <mxGeometry relative="1" as="geometry" />
        </mxCell>
        <mxCell id="CdXzb7p_uJ0kPg4sfLAn-47" value="&lt;u&gt;ReflectorFactory&lt;/u&gt;" style="swimlane;fontStyle=1;align=center;verticalAlign=top;childLayout=stackLayout;horizontal=1;startSize=26;horizontalStack=0;resizeParent=1;resizeParentMax=0;resizeLast=0;collapsible=1;marginBottom=0;whiteSpace=wrap;html=1;" vertex="1" parent="1">
          <mxGeometry x="145" y="920" width="280" height="80" as="geometry" />
        </mxCell>
        <mxCell id="CdXzb7p_uJ0kPg4sfLAn-48" value="" style="line;strokeWidth=1;fillColor=none;align=left;verticalAlign=middle;spacingTop=-1;spacingLeft=3;spacingRight=3;rotatable=0;labelPosition=right;points=[];portConstraint=eastwest;strokeColor=inherit;" vertex="1" parent="CdXzb7p_uJ0kPg4sfLAn-47">
          <mxGeometry y="26" width="280" height="8" as="geometry" />
        </mxCell>
        <mxCell id="CdXzb7p_uJ0kPg4sfLAn-49" value="+ &lt;u&gt;buildCustomReflector(&lt;/u&gt;String, String) : Reflector&lt;br&gt;+ &lt;u&gt;buildPresetReflector&lt;/u&gt;(String) : Reflector" style="text;strokeColor=none;fillColor=none;align=left;verticalAlign=top;spacingLeft=4;spacingRight=4;overflow=hidden;rotatable=0;points=[[0,0.5],[1,0.5]];portConstraint=eastwest;whiteSpace=wrap;html=1;" vertex="1" parent="CdXzb7p_uJ0kPg4sfLAn-47">
          <mxGeometry y="34" width="280" height="46" as="geometry" />
        </mxCell>
        <mxCell id="CdXzb7p_uJ0kPg4sfLAn-52" value="" style="endArrow=open;html=1;endSize=12;startArrow=diamondThin;startSize=14;startFill=1;edgeStyle=orthogonalEdgeStyle;align=left;verticalAlign=bottom;rounded=0;exitX=1;exitY=0.5;exitDx=0;exitDy=0;entryX=-0.005;entryY=0.297;entryDx=0;entryDy=0;entryPerimeter=0;" edge="1" parent="1" source="CdXzb7p_uJ0kPg4sfLAn-6" target="CdXzb7p_uJ0kPg4sfLAn-32">
          <mxGeometry x="-1" y="3" relative="1" as="geometry">
            <mxPoint x="260" y="750" as="sourcePoint" />
            <mxPoint x="523" y="910" as="targetPoint" />
          </mxGeometry>
        </mxCell>
        <mxCell id="CdXzb7p_uJ0kPg4sfLAn-54" value="" style="endArrow=open;html=1;endSize=12;startArrow=diamondThin;startSize=14;startFill=1;edgeStyle=orthogonalEdgeStyle;align=left;verticalAlign=bottom;rounded=0;exitX=1;exitY=0.5;exitDx=0;exitDy=0;entryX=0;entryY=0.5;entryDx=0;entryDy=0;" edge="1" parent="1" source="CdXzb7p_uJ0kPg4sfLAn-12" target="CdXzb7p_uJ0kPg4sfLAn-30">
          <mxGeometry x="-1" y="3" relative="1" as="geometry">
            <mxPoint x="220.5" y="650" as="sourcePoint" />
            <mxPoint x="339.5" y="640" as="targetPoint" />
          </mxGeometry>
        </mxCell>
      </root>
    </mxGraphModel>
  </diagram>
</mxfile>
